<svg width="512" height="512" viewBox="0 0 512 512" fill="none" xmlns="http://www.w3.org/2000/svg">
<rect width="512" height="512" fill="white"/>
<path d="M322.637 210.225H418.416C427.465 210.225 434.8 217.383 434.8 226.213V311.348C434.8 343.802 407.841 370.11 374.584 370.11H374.299C341.043 370.115 314.079 343.81 314.074 311.356C314.074 311.354 314.074 311.351 314.074 311.348V218.581C314.075 213.966 317.908 210.225 322.637 210.225Z" fill="#5059C9"/>
<path d="M376 188C396.435 188 413 171.435 413 151C413 130.565 396.435 114 376 114C355.565 114 339 130.565 339 151C339 171.435 355.565 188 376 188Z" fill="#5059C9"/>
<path d="M262 188C290.719 188 314 164.719 314 136C314 107.281 290.719 84 262 84C233.281 84 210 107.281 210 136C210 164.719 233.281 188 262 188Z" fill="#7B83EB"/>
<path d="M341.384 210.225H183.285C174.345 210.441 167.272 217.682 167.479 226.407V323.508C166.231 375.868 208.681 419.319 262.335 420.6C315.99 419.319 358.439 375.868 357.191 323.508V226.407C357.398 217.682 350.325 210.441 341.384 210.225Z" fill="#7B83EB"/>
<path d="M79.8063 159.735H237.905C246.635 159.735 253.711 166.641 253.711 175.16V329.44C253.711 337.959 246.635 344.865 237.905 344.865H79.8063C71.0767 344.865 64 337.959 64 329.44V175.16C64 166.641 71.0768 159.735 79.8063 159.735Z" fill="url(#paint0_linear_8_17)"/>
<path d="M200.454 218.455H168.85V302.437H148.715V218.455H117.257V202.164H200.454V218.455Z" fill="white"/>
<defs>
<linearGradient id="paint0_linear_8_17" x1="96.9568" y1="147.682" x2="216.271" y2="359.444" gradientUnits="userSpaceOnUse">
<stop stop-color="#5A62C3"/>
<stop offset="0.5" stop-color="#4D55BD"/>
<stop offset="1" stop-color="#3940AB"/>
</linearGradient>
</defs>
</svg>
